{
    "asset" : {
        "generator" : "Khronos glTF Blender I/O v1.4.40",
        "version" : "2.0"
    },
    "scene" : 0,
    "scenes" : [
        {
            "extras" : {
                "JK_MMT" : {
                    "Export_props" : [
                        {
                            "name" : "Default"
                        }
                    ],
                    "Export_active" : "Default",
                    "Import_props" : [
                        {
                            "name" : "Default"
                        }
                    ],
                    "Import_active" : "Default"
                },
                "bc" : {
                    "snap" : {
                        "hit" : 0
                    }
                },
                "glTF2ExportSettings" : {
                    "export_all_influences" : 1,
                    "export_animations" : 1,
                    "export_apply" : 0,
                    "export_colors" : 0,
                    "export_def_bones" : 1,
                    "export_extras" : 1,
                    "export_format" : "GLTF_SEPARATE",
                    "export_image_format" : "JPEG",
                    "export_materials" : "EXPORT",
                    "export_morph" : 1,
                    "export_morph_tangent" : 1,
                    "export_normals" : 0,
                    "export_skins" : 1,
                    "export_tangents" : 0,
                    "export_yup" : 1,
                    "use_selection" : 1
                }
            },
            "name" : "Scene",
            "nodes" : [
                6
            ]
        }
    ],
    "nodes" : [
        {
            "name" : "cntDown.1",
            "rotation" : [
                0,
                1.5894570992713852e-07,
                0,
                0.9999999403953552
            ],
            "scale" : [
                1,
                0,
                1.110607624053955
            ],
            "translation" : [
                0.23604299128055573,
                0,
                -5.62770345879926e-08
            ]
        },
        {
            "name" : "cntDown.go",
            "rotation" : [
                0,
                1.5894570992713852e-07,
                0,
                0.9999999403953552
            ],
            "scale" : [
                1,
                0,
                1
            ]
        },
        {
            "name" : "cntDown.3",
            "rotation" : [
                0,
                1.5894570992713852e-07,
                0,
                0.9999999403953552
            ],
            "scale" : [
                1,
                0,
                1
            ],
            "translation" : [
                0.23604299128055573,
                0,
                -5.62770345879926e-08
            ]
        },
        {
            "name" : "root",
            "rotation" : [
                -2.9802322387695312e-08,
                1.1920927533992653e-07,
                4.235164736271502e-22,
                1
            ],
            "scale" : [
                1,
                0.9999998807907104,
                0.9999998807907104
            ]
        },
        {
            "name" : "cntDown.2",
            "rotation" : [
                0,
                1.5894570992713852e-07,
                0,
                0.9999999403953552
            ],
            "scale" : [
                1,
                0,
                1
            ],
            "translation" : [
                0.23604299128055573,
                0,
                -5.62770345879926e-08
            ]
        },
        {
            "extras" : {},
            "mesh" : 0,
            "name" : "countdown_go",
            "skin" : 0
        },
        {
            "children" : [
                5,
                0,
                1,
                2,
                3,
                4
            ],
            "extras" : {},
            "name" : "cntDown_armature"
        }
    ],
    "animations" : [
        {
            "channels" : [
                {
                    "sampler" : 0,
                    "target" : {
                        "node" : 0,
                        "path" : "translation"
                    }
                },
                {
                    "sampler" : 1,
                    "target" : {
                        "node" : 0,
                        "path" : "rotation"
                    }
                },
                {
                    "sampler" : 2,
                    "target" : {
                        "node" : 0,
                        "path" : "scale"
                    }
                },
                {
                    "sampler" : 3,
                    "target" : {
                        "node" : 1,
                        "path" : "translation"
                    }
                },
                {
                    "sampler" : 4,
                    "target" : {
                        "node" : 1,
                        "path" : "rotation"
                    }
                },
                {
                    "sampler" : 5,
                    "target" : {
                        "node" : 1,
                        "path" : "scale"
                    }
                },
                {
                    "sampler" : 6,
                    "target" : {
                        "node" : 2,
                        "path" : "translation"
                    }
                },
                {
                    "sampler" : 7,
                    "target" : {
                        "node" : 2,
                        "path" : "rotation"
                    }
                },
                {
                    "sampler" : 8,
                    "target" : {
                        "node" : 2,
                        "path" : "scale"
                    }
                },
                {
                    "sampler" : 9,
                    "target" : {
                        "node" : 3,
                        "path" : "translation"
                    }
                },
                {
                    "sampler" : 10,
                    "target" : {
                        "node" : 3,
                        "path" : "rotation"
                    }
                },
                {
                    "sampler" : 11,
                    "target" : {
                        "node" : 3,
                        "path" : "scale"
                    }
                },
                {
                    "sampler" : 12,
                    "target" : {
                        "node" : 4,
                        "path" : "translation"
                    }
                },
                {
                    "sampler" : 13,
                    "target" : {
                        "node" : 4,
                        "path" : "rotation"
                    }
                },
                {
                    "sampler" : 14,
                    "target" : {
                        "node" : 4,
                        "path" : "scale"
                    }
                }
            ],
            "name" : "armCntDown",
            "samplers" : [
                {
                    "input" : 6,
                    "interpolation" : "LINEAR",
                    "output" : 7
                },
                {
                    "input" : 6,
                    "interpolation" : "LINEAR",
                    "output" : 8
                },
                {
                    "input" : 6,
                    "interpolation" : "LINEAR",
                    "output" : 9
                },
                {
                    "input" : 6,
                    "interpolation" : "LINEAR",
                    "output" : 10
                },
                {
                    "input" : 6,
                    "interpolation" : "LINEAR",
                    "output" : 11
                },
                {
                    "input" : 6,
                    "interpolation" : "LINEAR",
                    "output" : 12
                },
                {
                    "input" : 6,
                    "interpolation" : "LINEAR",
                    "output" : 13
                },
                {
                    "input" : 6,
                    "interpolation" : "LINEAR",
                    "output" : 14
                },
                {
                    "input" : 6,
                    "interpolation" : "LINEAR",
                    "output" : 15
                },
                {
                    "input" : 6,
                    "interpolation" : "LINEAR",
                    "output" : 16
                },
                {
                    "input" : 6,
                    "interpolation" : "LINEAR",
                    "output" : 17
                },
                {
                    "input" : 6,
                    "interpolation" : "LINEAR",
                    "output" : 18
                },
                {
                    "input" : 6,
                    "interpolation" : "LINEAR",
                    "output" : 19
                },
                {
                    "input" : 6,
                    "interpolation" : "LINEAR",
                    "output" : 20
                },
                {
                    "input" : 6,
                    "interpolation" : "LINEAR",
                    "output" : 21
                }
            ]
        }
    ],
    "materials" : [
        {
            "doubleSided" : true,
            "name" : "racingFont",
            "pbrMetallicRoughness" : {}
        }
    ],
    "meshes" : [
        {
            "extras" : {},
            "name" : "Plane.002",
            "primitives" : [
                {
                    "attributes" : {
                        "POSITION" : 0,
                        "TEXCOORD_0" : 1,
                        "JOINTS_0" : 2,
                        "WEIGHTS_0" : 3
                    },
                    "indices" : 4,
                    "material" : 0
                }
            ]
        }
    ],
    "skins" : [
        {
            "inverseBindMatrices" : 5,
            "joints" : [
                0,
                1,
                2,
                3,
                4
            ],
            "name" : "cntDown_armature"
        }
    ],
    "accessors" : [
        {
            "bufferView" : 0,
            "componentType" : 5126,
            "count" : 16,
            "max" : [
                1.0461201667785645,
                0.6548964381217957,
                1.965820928262474e-08
            ],
            "min" : [
                -1.26870596408844,
                -0.004723638296127319,
                -1.965820928262474e-08
            ],
            "type" : "VEC3"
        },
        {
            "bufferView" : 1,
            "componentType" : 5126,
            "count" : 16,
            "type" : "VEC2"
        },
        {
            "bufferView" : 2,
            "componentType" : 5121,
            "count" : 16,
            "type" : "VEC4"
        },
        {
            "bufferView" : 3,
            "componentType" : 5126,
            "count" : 16,
            "type" : "VEC4"
        },
        {
            "bufferView" : 4,
            "componentType" : 5123,
            "count" : 24,
            "type" : "SCALAR"
        },
        {
            "bufferView" : 5,
            "componentType" : 5126,
            "count" : 5,
            "type" : "MAT4"
        },
        {
            "bufferView" : 6,
            "componentType" : 5126,
            "count" : 93,
            "max" : [
                3.875
            ],
            "min" : [
                0.041666666666666664
            ],
            "type" : "SCALAR"
        },
        {
            "bufferView" : 7,
            "componentType" : 5126,
            "count" : 93,
            "type" : "VEC3"
        },
        {
            "bufferView" : 8,
            "componentType" : 5126,
            "count" : 93,
            "type" : "VEC4"
        },
        {
            "bufferView" : 9,
            "componentType" : 5126,
            "count" : 93,
            "type" : "VEC3"
        },
        {
            "bufferView" : 10,
            "componentType" : 5126,
            "count" : 93,
            "type" : "VEC3"
        },
        {
            "bufferView" : 11,
            "componentType" : 5126,
            "count" : 93,
            "type" : "VEC4"
        },
        {
            "bufferView" : 12,
            "componentType" : 5126,
            "count" : 93,
            "type" : "VEC3"
        },
        {
            "bufferView" : 13,
            "componentType" : 5126,
            "count" : 93,
            "type" : "VEC3"
        },
        {
            "bufferView" : 14,
            "componentType" : 5126,
            "count" : 93,
            "type" : "VEC4"
        },
        {
            "bufferView" : 15,
            "componentType" : 5126,
            "count" : 93,
            "type" : "VEC3"
        },
        {
            "bufferView" : 16,
            "componentType" : 5126,
            "count" : 93,
            "type" : "VEC3"
        },
        {
            "bufferView" : 17,
            "componentType" : 5126,
            "count" : 93,
            "type" : "VEC4"
        },
        {
            "bufferView" : 18,
            "componentType" : 5126,
            "count" : 93,
            "type" : "VEC3"
        },
        {
            "bufferView" : 19,
            "componentType" : 5126,
            "count" : 93,
            "type" : "VEC3"
        },
        {
            "bufferView" : 20,
            "componentType" : 5126,
            "count" : 93,
            "type" : "VEC4"
        },
        {
            "bufferView" : 21,
            "componentType" : 5126,
            "count" : 93,
            "type" : "VEC3"
        }
    ],
    "bufferViews" : [
        {
            "buffer" : 0,
            "byteLength" : 192,
            "byteOffset" : 0
        },
        {
            "buffer" : 0,
            "byteLength" : 128,
            "byteOffset" : 192
        },
        {
            "buffer" : 0,
            "byteLength" : 64,
            "byteOffset" : 320
        },
        {
            "buffer" : 0,
            "byteLength" : 256,
            "byteOffset" : 384
        },
        {
            "buffer" : 0,
            "byteLength" : 48,
            "byteOffset" : 640
        },
        {
            "buffer" : 0,
            "byteLength" : 320,
            "byteOffset" : 688
        },
        {
            "buffer" : 0,
            "byteLength" : 372,
            "byteOffset" : 1008
        },
        {
            "buffer" : 0,
            "byteLength" : 1116,
            "byteOffset" : 1380
        },
        {
            "buffer" : 0,
            "byteLength" : 1488,
            "byteOffset" : 2496
        },
        {
            "buffer" : 0,
            "byteLength" : 1116,
            "byteOffset" : 3984
        },
        {
            "buffer" : 0,
            "byteLength" : 1116,
            "byteOffset" : 5100
        },
        {
            "buffer" : 0,
            "byteLength" : 1488,
            "byteOffset" : 6216
        },
        {
            "buffer" : 0,
            "byteLength" : 1116,
            "byteOffset" : 7704
        },
        {
            "buffer" : 0,
            "byteLength" : 1116,
            "byteOffset" : 8820
        },
        {
            "buffer" : 0,
            "byteLength" : 1488,
            "byteOffset" : 9936
        },
        {
            "buffer" : 0,
            "byteLength" : 1116,
            "byteOffset" : 11424
        },
        {
            "buffer" : 0,
            "byteLength" : 1116,
            "byteOffset" : 12540
        },
        {
            "buffer" : 0,
            "byteLength" : 1488,
            "byteOffset" : 13656
        },
        {
            "buffer" : 0,
            "byteLength" : 1116,
            "byteOffset" : 15144
        },
        {
            "buffer" : 0,
            "byteLength" : 1116,
            "byteOffset" : 16260
        },
        {
            "buffer" : 0,
            "byteLength" : 1488,
            "byteOffset" : 17376
        },
        {
            "buffer" : 0,
            "byteLength" : 1116,
            "byteOffset" : 18864
        }
    ],
    "buffers" : [
        {
            "byteLength" : 19980,
            "uri" : "raceFont.bin"
        }
    ]
}
